<?xml version="1.0" encoding="UTF-8"?>
<svg id="Layer_1" data-name="Layer 1" xmlns="http://www.w3.org/2000/svg" viewBox="0 0 1209.18 399.51">
  <defs>
    <style>
      .cls-1 {
        fill: #31a4d3;
      }

      .cls-1, .cls-2, .cls-3, .cls-4 {
        stroke-width: 0px;
      }

      .cls-3 {
        fill: #0b0b0b;
      }

      .cls-4 {
        fill: #0a0a0a;
      }
    </style>
  </defs>
  <path class="cls-3" d="m603.14,1.58c-.65-.02-1.22-.14-.89-.98.1-.25.43-.4.65-.6.01.52.03,1.04.07,1.57.03,0,.17.01.17.01Z"/>
  <g>
    <path class="cls-4" d="m338.64,178.52c-2.91,0-5.84-.08-8.76.03-1.69.07-2.22-.53-2.14-2.18.15-3.45-1.11-7.84.57-10.1,1.61-2.17,6.26-.63,9.56-.65,15.63-.08,31.25.03,46.88-.09,2.43-.02,3.24.57,3.02,3.03-.23,2.64-.13,5.32-.03,7.98.07,1.77-.4,2.09-2.32,2.15-17.13.51-32.3,6.23-44.54,18.38-8.79,8.73-9.25,19.71-6.37,30.96,3.59,14.04,11.27,26.14,18.8,38.31,8.25,13.33,18,25.68,25.54,39.44,7.18,13.1,10.93,27.1,9.49,42.19-.69,7.25-2.9,14.1-6.46,21.23,4.76-1.85,8.93-3.32,12.96-5.1,1.88-.83,2.63-.35,3.39,1.33,1.22,2.71,4.37,5.43,3.7,7.85-.7,2.49-4.87,2.87-7.55,4.1-15.67,7.23-31.4,14.35-47.07,21.57-1.7.78-2.75.89-4-.84-2.76-3.84-5.7-7.57-8.77-11.17-1.4-1.64-.89-2.07.77-2.78,8.91-3.83,17.47-8.27,25.07-14.4,12.92-10.42,16.75-24.32,11.23-39.96-5.61-15.91-14.81-29.85-23.55-44.07-8.26-13.44-17.65-26.2-24.44-40.53-4.32-9.12-7.38-18.61-7.44-28.83-.09-15.23,6.73-26.73,19.18-35.12,1.05-.71,2.18-1.29,3.26-1.95.05-.03,0-.22,0-.78Z"/>
    <g>
      <path class="cls-2" d="m413.77,207.87l-2.98,15.82h14.96l-1.66,8.23h-14.96l-5.1,26.77c-.65,3.32-1.26,6.45-1.26,9.99s1.83,6.08,6.02,6.08c1.91,0,3.72-.17,5.13-.54l-.41,8.26c-1.71.71-5.01,1.15-8.26,1.15-9.71,0-13.15-5.96-13.15-12.01,0-3.77.5-7.39,1.33-11.48l5.48-28.22h-8.81l1.62-8.23h8.81l2.47-13.31,10.78-2.51Z"/>
      <path class="cls-2" d="m470.33,282.18c-.1-3.59.57-9.89,1.45-16.44h-.24c-6.51,12.9-15.55,17.89-25.11,17.89-11.55,0-18.77-9.02-18.77-20.27,0-21.25,16.83-41.12,43.22-41.12,6.12,0,12.88,1.02,17.47,2.32l-5.7,29.5c-2.06,10.93-2.79,21.67-2.47,28.12h-9.84Zm6.21-50.69c-1.5-.5-4-.95-8.09-.95-15.84,0-29.87,13.84-29.87,31.27,0,6.26,2.6,13.36,11.52,13.36s20.25-10.7,23.37-27.54l3.07-16.14Z"/>
      <path class="cls-2" d="m496.88,282.18l7.06-37.12c1.43-7.56,2.37-15.59,3.11-21.37h9.24c-.58,4.4-1.16,8.8-1.86,13.29h.36c3.89-8.28,10.52-14.74,19.03-14.74,1.04,0,2.42.08,3.29.25l-2.03,10.15c-.85-.17-1.86-.25-3.25-.25-8.99,0-17.15,10.42-19.97,25.62l-4.52,24.17h-10.45Z"/>
      <path class="cls-2" d="m538.15,295.11c3.93,2.53,10.43,4.24,17.54,4.24,10.18,0,19.25-4.52,23.12-22.04l1.92-8.59h-.33c-5.19,8.44-13.08,13.24-22.46,13.24-13.41,0-20.04-11.2-20.04-21.37,0-20.79,16.3-38.35,39.5-38.35,7.52,0,15.82,2.09,20.9,4.49l-8.79,47.57c-2.36,12.43-5.91,21.29-12.66,26.91-6.46,5.37-15.26,6.62-22.05,6.62-8,0-15.47-1.79-19.55-4.58l2.9-8.12Zm48.73-62.24c-2.06-.99-6.42-2.33-11.23-2.33-15.53,0-26.75,13.54-26.75,28.73,0,6.36,2.78,14.48,12.99,14.48,9.38,0,19.28-10.82,21.67-23.5l3.31-17.38Z"/>
      <path class="cls-2" d="m649.33,282.18c-.1-3.59.57-9.89,1.45-16.44h-.24c-6.5,12.9-15.55,17.89-25.11,17.89-11.55,0-18.77-9.02-18.77-20.27,0-21.25,16.83-41.12,43.22-41.12,6.12,0,12.88,1.02,17.47,2.32l-5.7,29.5c-2.05,10.93-2.79,21.67-2.47,28.12h-9.84Zm6.21-50.69c-1.5-.5-4-.95-8.09-.95-15.84,0-29.87,13.84-29.87,31.27,0,6.26,2.6,13.36,11.52,13.36s20.25-10.7,23.37-27.54l3.07-16.14Z"/>
      <path class="cls-2" d="m702.46,207.87l-2.97,15.82h14.96l-1.66,8.23h-14.96l-5.1,26.77c-.65,3.32-1.26,6.45-1.26,9.99s1.82,6.08,6.02,6.08c1.91,0,3.72-.17,5.13-.54l-.41,8.26c-1.71.71-5.01,1.15-8.26,1.15-9.71,0-13.15-5.96-13.15-12.01,0-3.77.5-7.39,1.33-11.48l5.48-28.22h-8.82l1.62-8.23h8.82l2.47-13.31,10.78-2.51Z"/>
      <path class="cls-2" d="m761.78,278.68c-4.48,2.53-12.42,4.95-21.19,4.95-16.62,0-24.22-10.98-24.22-24.49,0-18.18,14.49-36.9,34.02-36.9,11.99,0,18.88,6.67,18.88,15.58,0,15.76-18.91,19.13-42.4,18.58-.57,2.82.03,7.9,1.45,10.9,2.71,5.39,7.88,7.96,14.36,7.96,7.76,0,13.67-2.22,17.54-4.29l1.55,7.71Zm-12.83-48.51c-11,0-18.78,10.3-20.95,18.27,17.91.25,31.07-1.5,31.07-10.5,0-5.03-4.29-7.77-10.12-7.77Z"/>
    </g>
  </g>
  <g>
    <path class="cls-1" d="m52.56,252.95c63.9-62.49,175.14-147.43,262.42-167.89,0,0,10.02-1.58,10.02-1.58-13.21,2.92-25.78,7.75-38.09,13.08-30.49,13.59-59.88,30.84-88.01,48.8-50.94,32.55-99.37,69.55-146.35,107.59h0Z"/>
    <path class="cls-1" d="m181.77,183.64l145.32,92.61-149.5-85.71c-4.62-2.85-.54-9.68,4.17-6.9h0Z"/>
    <path class="cls-2" d="m166.04,362.25l100.12-264.32-92.54,267.07c-1.91,5.02-9.33,2.4-7.58-2.75h0Z"/>
    <path class="cls-2" d="m26.08,269.15l220.83,8.83-220.58-.78c-3.79-.17-4.08-8.02-.24-8.05h0Z"/>
    <path class="cls-1" d="m94.68,113.49l237.79,170.83L86.79,90.24c-1.9-2.08-4.96-2.96-7.78-1.91-1.41.52-2.55,1.44-3.36,2.58-.01.02-.03.03-.05.06-1.65,2.29-1.72,5.21-.48,7.54l90.67,245.86L94.68,113.49Z"/>
    <path class="cls-2" d="m49.27,250.29l224.95,27.76-225.79-19.74c-5.36-.64-4.58-8.5.85-8.02h0Z"/>
    <path class="cls-1" d="m85.74,136.28l77.36,200.01-84.83-196.96c-1.98-5.03,5.33-8.07,7.47-3.05h0Z"/>
    <path class="cls-2" d="m4.34,255.66l311.1,26.87L3.75,263.7c-5.34-.48-4.84-8.33.59-8.04h0Z"/>
    <path class="cls-2" d="m191.09,326.53l73.28-210.67-65.62,213.18c-1.75,5.11-9.28,2.69-7.66-2.51h0Z"/>
    <path class="cls-4" d="m345.9,160.33c25.45-34.26,35.56-63.2,24.2-78.48-22.35-30.09-119.41,4.15-216.78,76.49-40.4,30.01-76.81,62.95-103.99,93.36,25.16-37.8,73.29-84.75,129.5-125.48,94.58-68.55,189.21-99.34,211.37-68.78,14.09,19.44-4.54,59.02-44.3,102.9Z"/>
  </g>
  <g>
    <path class="cls-2" d="m825.38,201.16l-15.53,81.51h-10.45l15.53-81.51h10.45Z"/>
    <path class="cls-2" d="m829.19,282.67l8.02-42.46c1.19-5.84,1.98-11.13,2.66-16.03h9.47l-1.68,12.25h.24c5.44-8.6,14.21-13.7,23.68-13.7,6.84,0,16.36,3.46,16.36,17.73,0,2.33-.48,6.36-1.02,9.39l-6.28,32.83h-10.45l6.14-32.4c.36-2.14.77-4.98.77-7.29,0-6.62-2.53-11.62-10.54-11.62s-19.11,8.65-21.95,24.26l-4.98,27.05h-10.45Z"/>
    <path class="cls-2" d="m926.29,208.37l-2.98,15.82h14.96l-1.66,8.23h-14.96l-5.1,26.77c-.65,3.32-1.26,6.45-1.26,9.99s1.83,6.08,6.02,6.08c1.91,0,3.72-.17,5.13-.54l-.41,8.26c-1.71.71-5.01,1.15-8.26,1.15-9.71,0-13.15-5.96-13.15-12.01,0-3.77.5-7.39,1.33-11.48l5.48-28.22h-8.81l1.62-8.23h8.81l2.47-13.31,10.78-2.51Z"/>
    <path class="cls-2" d="m985.61,279.18c-4.48,2.53-12.42,4.95-21.19,4.95-16.62,0-24.22-10.98-24.22-24.49,0-18.18,14.49-36.9,34.03-36.9,11.99,0,18.88,6.68,18.88,15.58,0,15.76-18.91,19.13-42.4,18.58-.57,2.82.03,7.9,1.45,10.9,2.71,5.39,7.88,7.96,14.36,7.96,7.76,0,13.67-2.22,17.54-4.29l1.55,7.71Zm-12.83-48.51c-11,0-18.77,10.3-20.95,18.27,17.91.25,31.07-1.5,31.07-10.5,0-5.03-4.29-7.77-10.12-7.77Z"/>
    <path class="cls-2" d="m999.48,282.67l7.06-37.12c1.43-7.56,2.37-15.59,3.11-21.37h9.24c-.58,4.4-1.16,8.8-1.86,13.29h.36c3.89-8.28,10.52-14.74,19.03-14.74,1.04,0,2.42.08,3.29.25l-2.03,10.15c-.85-.17-1.86-.25-3.25-.25-8.99,0-17.15,10.43-19.97,25.62l-4.52,24.17h-10.45Z"/>
    <path class="cls-2" d="m1040.72,282.67l8.02-42.46c1.19-5.84,1.98-11.13,2.66-16.03h9.47l-1.68,12.25h.24c5.44-8.6,14.21-13.7,23.68-13.7,6.84,0,16.36,3.46,16.36,17.73,0,2.33-.48,6.36-1.02,9.39l-6.28,32.83h-10.45l6.14-32.4c.36-2.14.77-4.98.77-7.29,0-6.62-2.53-11.62-10.54-11.62s-19.11,8.65-21.95,24.26l-4.98,27.05h-10.45Z"/>
    <path class="cls-2" d="m1156.5,279.18c-4.48,2.53-12.42,4.95-21.19,4.95-16.62,0-24.22-10.98-24.22-24.49,0-18.18,14.49-36.9,34.03-36.9,11.99,0,18.88,6.68,18.88,15.58,0,15.76-18.91,19.13-42.4,18.58-.57,2.82.03,7.9,1.45,10.9,2.71,5.39,7.88,7.96,14.36,7.96,7.76,0,13.67-2.22,17.54-4.29l1.55,7.71Zm-12.83-48.51c-11,0-18.77,10.3-20.95,18.27,17.91.25,31.07-1.5,31.07-10.5,0-5.03-4.29-7.77-10.12-7.77Z"/>
    <path class="cls-2" d="m1197.2,208.37l-2.98,15.82h14.96l-1.66,8.23h-14.96l-5.1,26.77c-.65,3.32-1.26,6.45-1.26,9.99s1.83,6.08,6.02,6.08c1.91,0,3.72-.17,5.13-.54l-.41,8.26c-1.71.71-5.01,1.15-8.26,1.15-9.71,0-13.15-5.96-13.15-12.01,0-3.77.5-7.39,1.33-11.48l5.48-28.22h-8.81l1.62-8.23h8.81l2.47-13.31,10.78-2.51Z"/>
  </g>
  <g>
    <path class="cls-2" d="m497.91,322.76h2.48l4.94,17.41,6.93-17.41h.5l6.85,17.41,5.02-17.41h2.46l-6.94,24.16h-.45l-7.17-18.28-7.31,18.28h-.45l-6.85-24.16Z"/>
    <path class="cls-2" d="m539.6,322.16h2.3v10.1c.93-1.23,1.95-2.14,3.07-2.75,1.12-.61,2.33-.91,3.63-.91s2.52.34,3.56,1.02,1.8,1.59,2.29,2.74.74,2.94.74,5.38v9.2h-2.3v-8.53c0-2.06-.08-3.43-.25-4.12-.28-1.18-.8-2.07-1.55-2.67s-1.73-.9-2.95-.9c-1.39,0-2.64.46-3.74,1.38s-1.83,2.06-2.18,3.42c-.22.88-.33,2.5-.33,4.86v6.55h-2.3v-24.77Z"/>
    <path class="cls-2" d="m583.57,341l1.94,1.02c-.64,1.25-1.37,2.26-2.2,3.02s-1.77,1.35-2.81,1.75-2.22.6-3.54.6c-2.92,0-5.2-.96-6.84-2.87s-2.47-4.07-2.47-6.48c0-2.27.7-4.29,2.09-6.06,1.76-2.26,4.13-3.38,7.09-3.38s5.48,1.16,7.3,3.47c1.29,1.63,1.95,3.67,1.97,6.11h-16.08c.04,2.08.71,3.78,1.99,5.1s2.87,1.99,4.75,1.99c.91,0,1.8-.16,2.66-.47.86-.32,1.59-.74,2.2-1.26s1.26-1.37,1.96-2.54Zm0-4.81c-.31-1.23-.75-2.21-1.34-2.94-.59-.73-1.36-1.32-2.33-1.77s-1.98-.67-3.04-.67c-1.75,0-3.26.56-4.52,1.69-.92.82-1.62,2.05-2.09,3.7h13.32Z"/>
    <path class="cls-2" d="m597.93,329.05h2.35v2.61c.7-1.03,1.44-1.8,2.22-2.31.78-.51,1.59-.76,2.43-.76.64,0,1.31.2,2.04.61l-1.2,1.94c-.48-.21-.89-.31-1.22-.31-.77,0-1.51.31-2.22.94s-1.25,1.61-1.63,2.93c-.28,1.02-.43,3.08-.43,6.18v6.04h-2.35v-17.87Z"/>
    <path class="cls-2" d="m632.38,341l1.94,1.02c-.64,1.25-1.37,2.26-2.2,3.02s-1.77,1.35-2.81,1.75-2.22.6-3.54.6c-2.92,0-5.2-.96-6.84-2.87-1.64-1.91-2.47-4.07-2.47-6.48,0-2.27.7-4.29,2.09-6.06,1.76-2.26,4.13-3.38,7.09-3.38s5.48,1.16,7.3,3.47c1.29,1.63,1.95,3.67,1.97,6.11h-16.08c.04,2.08.71,3.78,1.99,5.1s2.87,1.99,4.75,1.99c.91,0,1.8-.16,2.66-.47s1.59-.74,2.2-1.26,1.26-1.37,1.96-2.54Zm0-4.81c-.31-1.23-.75-2.21-1.34-2.94-.59-.73-1.36-1.32-2.33-1.77s-1.98-.67-3.04-.67c-1.75,0-3.26.56-4.52,1.69-.92.82-1.62,2.05-2.09,3.7h13.32Z"/>
    <path class="cls-2" d="m663.21,342.43l2.05-1.23c1.45,2.66,3.12,3.99,5.01,3.99.81,0,1.57-.19,2.28-.57.71-.38,1.25-.88,1.63-1.52.37-.63.56-1.31.56-2.02,0-.81-.27-1.6-.82-2.38-.76-1.07-2.14-2.37-4.14-3.88-2.02-1.52-3.27-2.62-3.76-3.3-.85-1.14-1.28-2.37-1.28-3.7,0-1.05.25-2.01.76-2.88s1.21-1.55,2.13-2.04,1.91-.75,2.98-.75c1.14,0,2.2.28,3.19.85.99.56,2.04,1.6,3.15,3.11l-1.97,1.5c-.91-1.21-1.68-2-2.33-2.38-.64-.38-1.34-.58-2.09-.58-.97,0-1.77.3-2.39.89-.62.59-.93,1.32-.93,2.19,0,.53.11,1.03.33,1.53s.62,1.03,1.2,1.61c.32.31,1.36,1.11,3.12,2.42,2.09,1.54,3.53,2.92,4.3,4.12.78,1.21,1.17,2.42,1.17,3.63,0,1.75-.67,3.27-2,4.57-1.33,1.29-2.95,1.94-4.85,1.94-1.47,0-2.8-.39-3.99-1.17-1.19-.78-2.29-2.09-3.3-3.93Z"/>
    <path class="cls-2" d="m690.52,329.05h2.3v3.29c.91-1.25,1.95-2.18,3.13-2.81s2.5-.94,3.96-.94c2.54,0,4.71.92,6.51,2.74,1.8,1.83,2.71,4.03,2.71,6.6s-.89,4.86-2.68,6.69c-1.79,1.83-3.95,2.75-6.47,2.75-1.42,0-2.73-.3-3.92-.89-1.19-.59-2.27-1.47-3.23-2.64v9.61h-2.3v-24.41Zm9.2,1.76c-1.99,0-3.66.69-5.02,2.08-1.36,1.39-2.04,3.12-2.04,5.18,0,1.36.3,2.58.91,3.66s1.47,1.94,2.61,2.58c1.13.63,2.32.95,3.58.95s2.39-.32,3.48-.96c1.09-.64,1.95-1.53,2.6-2.68s.97-2.35.97-3.61-.32-2.47-.96-3.61-1.5-2.02-2.58-2.65-2.26-.94-3.54-.94Z"/>
    <path class="cls-2" d="m736.9,341l1.94,1.02c-.64,1.25-1.37,2.26-2.2,3.02s-1.77,1.35-2.81,1.75-2.22.6-3.54.6c-2.92,0-5.2-.96-6.84-2.87-1.64-1.91-2.47-4.07-2.47-6.48,0-2.27.7-4.29,2.09-6.06,1.76-2.26,4.13-3.38,7.09-3.38s5.48,1.16,7.3,3.47c1.29,1.63,1.95,3.67,1.97,6.11h-16.08c.04,2.08.71,3.78,1.99,5.1s2.87,1.99,4.75,1.99c.91,0,1.8-.16,2.66-.47s1.59-.74,2.2-1.26,1.26-1.37,1.96-2.54Zm0-4.81c-.31-1.23-.75-2.21-1.34-2.94-.59-.73-1.36-1.32-2.33-1.77s-1.98-.67-3.04-.67c-1.75,0-3.26.56-4.52,1.69-.92.82-1.62,2.05-2.09,3.7h13.32Z"/>
    <path class="cls-2" d="m767.17,341l1.94,1.02c-.63,1.25-1.37,2.26-2.2,3.02-.83.77-1.77,1.35-2.81,1.75-1.04.4-2.22.6-3.54.6-2.92,0-5.2-.96-6.84-2.87s-2.47-4.07-2.47-6.48c0-2.27.7-4.29,2.09-6.06,1.77-2.26,4.13-3.38,7.09-3.38s5.48,1.16,7.3,3.47c1.29,1.63,1.95,3.67,1.97,6.11h-16.08c.04,2.08.71,3.78,1.99,5.1,1.28,1.33,2.87,1.99,4.75,1.99.91,0,1.79-.16,2.66-.47.86-.32,1.59-.74,2.2-1.26.6-.52,1.26-1.37,1.96-2.54Zm0-4.81c-.31-1.23-.75-2.21-1.34-2.94-.59-.73-1.36-1.32-2.33-1.77s-1.98-.67-3.04-.67c-1.75,0-3.26.56-4.52,1.69-.92.82-1.62,2.05-2.09,3.7h13.32Z"/>
    <path class="cls-2" d="m800.24,322.16v24.77h-2.27v-3.07c-.96,1.17-2.04,2.05-3.24,2.64-1.2.59-2.51.89-3.93.89-2.53,0-4.69-.92-6.48-2.75-1.79-1.83-2.69-4.07-2.69-6.69s.9-4.77,2.71-6.6c1.81-1.83,3.98-2.74,6.52-2.74,1.47,0,2.79.31,3.98.94,1.19.62,2.23,1.56,3.13,2.81v-10.18h2.27Zm-9.19,8.66c-1.28,0-2.46.31-3.54.94s-1.94,1.51-2.58,2.65c-.64,1.14-.96,2.34-.96,3.61s.32,2.46.97,3.61c.65,1.15,1.51,2.04,2.6,2.68,1.09.64,2.26.96,3.5.96s2.45-.32,3.58-.95c1.13-.63,1.99-1.49,2.6-2.58s.91-2.3.91-3.66c0-2.07-.68-3.8-2.04-5.18-1.36-1.39-3.04-2.08-5.03-2.08Z"/>
    <path class="cls-2" d="m830.86,346.93l3.46-24.16h.39l9.82,19.83,9.73-19.83h.39l3.48,24.16h-2.37l-2.39-17.28-8.54,17.28h-.62l-8.65-17.41-2.37,17.41h-2.33Z"/>
    <path class="cls-2" d="m885.95,341l1.94,1.02c-.64,1.25-1.37,2.26-2.2,3.02-.83.77-1.77,1.35-2.81,1.75-1.04.4-2.22.6-3.54.6-2.92,0-5.2-.96-6.84-2.87s-2.47-4.07-2.47-6.48c0-2.27.7-4.29,2.09-6.06,1.76-2.26,4.13-3.38,7.09-3.38s5.48,1.16,7.3,3.47c1.29,1.63,1.95,3.67,1.97,6.11h-16.08c.04,2.08.71,3.78,1.99,5.1,1.28,1.33,2.87,1.99,4.75,1.99.91,0,1.79-.16,2.66-.47.86-.32,1.59-.74,2.2-1.26.6-.52,1.25-1.37,1.96-2.54Zm0-4.81c-.31-1.23-.75-2.21-1.34-2.94-.59-.73-1.36-1.32-2.33-1.77s-1.98-.67-3.04-.67c-1.75,0-3.26.56-4.52,1.69-.92.82-1.62,2.05-2.09,3.7h13.32Z"/>
    <path class="cls-2" d="m916.22,341l1.94,1.02c-.64,1.25-1.37,2.26-2.2,3.02-.83.77-1.77,1.35-2.81,1.75-1.04.4-2.22.6-3.54.6-2.92,0-5.2-.96-6.84-2.87s-2.47-4.07-2.47-6.48c0-2.27.7-4.29,2.09-6.06,1.76-2.26,4.13-3.38,7.09-3.38s5.48,1.16,7.3,3.47c1.29,1.63,1.95,3.67,1.97,6.11h-16.08c.04,2.08.71,3.78,1.99,5.1,1.28,1.33,2.87,1.99,4.75,1.99.91,0,1.79-.16,2.66-.47.86-.32,1.59-.74,2.2-1.26.6-.52,1.25-1.37,1.96-2.54Zm0-4.81c-.31-1.23-.75-2.21-1.34-2.94-.59-.73-1.36-1.32-2.33-1.77s-1.98-.67-3.04-.67c-1.75,0-3.26.56-4.52,1.69-.92.82-1.62,2.05-2.09,3.7h13.32Z"/>
    <path class="cls-2" d="m933.46,322.42h2.3v6.64h3.65v1.99h-3.65v15.88h-2.3v-15.88h-3.14v-1.99h3.14v-6.64Z"/>
    <path class="cls-2" d="m960.25,331.01l-1.48,1.53c-1.23-1.19-2.43-1.79-3.61-1.79-.75,0-1.39.25-1.92.74-.53.49-.8,1.07-.8,1.72,0,.58.22,1.13.66,1.66.44.54,1.36,1.17,2.77,1.89,1.71.89,2.88,1.74,3.49,2.56.6.83.91,1.77.91,2.81,0,1.47-.52,2.71-1.55,3.73s-2.32,1.53-3.87,1.53c-1.03,0-2.02-.22-2.95-.67-.94-.45-1.71-1.07-2.33-1.86l1.45-1.64c1.17,1.32,2.42,1.99,3.74,1.99.92,0,1.71-.3,2.35-.89.65-.59.97-1.29.97-2.09,0-.66-.21-1.24-.64-1.76-.43-.5-1.39-1.14-2.9-1.91-1.61-.83-2.71-1.65-3.29-2.46s-.87-1.74-.87-2.78c0-1.36.46-2.49,1.39-3.38.93-.9,2.1-1.35,3.51-1.35,1.64,0,3.3.8,4.97,2.42Z"/>
    <path class="cls-2" d="m988.34,342.43l2.05-1.23c1.45,2.66,3.12,3.99,5.01,3.99.81,0,1.57-.19,2.28-.57s1.25-.88,1.63-1.52.56-1.31.56-2.02c0-.81-.27-1.6-.82-2.38-.75-1.07-2.13-2.37-4.14-3.88-2.01-1.52-3.27-2.62-3.76-3.3-.85-1.14-1.28-2.37-1.28-3.7,0-1.05.25-2.01.76-2.88s1.21-1.55,2.13-2.04c.91-.5,1.91-.75,2.98-.75,1.14,0,2.2.28,3.2.85.99.56,2.04,1.6,3.15,3.11l-1.97,1.5c-.91-1.21-1.68-2-2.32-2.38-.64-.38-1.34-.58-2.09-.58-.97,0-1.77.3-2.39.89-.62.59-.93,1.32-.93,2.19,0,.53.11,1.03.33,1.53.22.49.62,1.03,1.2,1.61.32.31,1.36,1.11,3.12,2.42,2.09,1.54,3.53,2.92,4.3,4.12.78,1.21,1.17,2.42,1.17,3.63,0,1.75-.67,3.27-2,4.57-1.33,1.29-2.95,1.94-4.85,1.94-1.47,0-2.8-.39-3.99-1.17-1.19-.78-2.29-2.09-3.3-3.93Z"/>
    <path class="cls-2" d="m1030.67,341l1.94,1.02c-.64,1.25-1.37,2.26-2.2,3.02-.83.77-1.77,1.35-2.81,1.75-1.04.4-2.22.6-3.54.6-2.92,0-5.2-.96-6.84-2.87s-2.47-4.07-2.47-6.48c0-2.27.7-4.29,2.09-6.06,1.76-2.26,4.13-3.38,7.09-3.38s5.48,1.16,7.3,3.47c1.29,1.63,1.95,3.67,1.97,6.11h-16.08c.04,2.08.71,3.78,1.99,5.1,1.28,1.33,2.87,1.99,4.75,1.99.91,0,1.79-.16,2.66-.47.86-.32,1.59-.74,2.2-1.26.6-.52,1.25-1.37,1.96-2.54Zm0-4.81c-.31-1.23-.75-2.21-1.34-2.94-.59-.73-1.36-1.32-2.33-1.77s-1.98-.67-3.04-.67c-1.75,0-3.26.56-4.52,1.69-.92.82-1.62,2.05-2.09,3.7h13.32Z"/>
    <path class="cls-2" d="m1063.7,329.05v17.87h-2.27v-3.07c-.96,1.17-2.04,2.05-3.24,2.64-1.2.59-2.51.89-3.93.89-2.53,0-4.69-.92-6.48-2.75-1.79-1.83-2.69-4.07-2.69-6.69s.9-4.77,2.71-6.6c1.81-1.83,3.98-2.74,6.52-2.74,1.47,0,2.79.31,3.98.94s2.23,1.56,3.13,2.81v-3.29h2.27Zm-9.19,1.76c-1.28,0-2.46.31-3.54.94s-1.94,1.51-2.58,2.65-.96,2.34-.96,3.61.32,2.46.97,3.61c.65,1.15,1.51,2.04,2.6,2.68,1.09.64,2.26.96,3.5.96s2.45-.32,3.58-.95c1.13-.63,1.99-1.49,2.6-2.58s.91-2.3.91-3.66c0-2.07-.68-3.8-2.04-5.18-1.36-1.39-3.04-2.08-5.03-2.08Z"/>
    <path class="cls-2" d="m1077.27,329.05h2.3v3.09c.8-1.14,1.62-1.97,2.47-2.5,1.16-.7,2.38-1.05,3.67-1.05.87,0,1.69.17,2.47.51.78.34,1.42.79,1.91,1.35.49.56.92,1.37,1.28,2.42.76-1.4,1.72-2.47,2.87-3.19s2.38-1.09,3.7-1.09c1.23,0,2.32.31,3.27.94.95.62,1.65,1.5,2.11,2.61.46,1.12.69,2.79.69,5.03v9.76h-2.35v-9.76c0-1.92-.14-3.23-.41-3.95-.27-.72-.74-1.29-1.4-1.73-.66-.44-1.45-.66-2.37-.66-1.11,0-2.13.33-3.05.99-.92.66-1.6,1.53-2.02,2.63-.43,1.1-.64,2.92-.64,5.49v7h-2.3v-9.15c0-2.16-.13-3.62-.4-4.39-.27-.77-.74-1.39-1.4-1.86-.67-.47-1.46-.7-2.38-.7-1.06,0-2.06.32-2.98.96-.93.64-1.61,1.5-2.05,2.59-.44,1.08-.67,2.74-.67,4.98v7.57h-2.3v-17.87Z"/>
    <path class="cls-2" d="m1116.91,322.16h2.3v24.77h-2.3v-24.77Z"/>
    <path class="cls-2" d="m1147.44,341l1.94,1.02c-.64,1.25-1.37,2.26-2.2,3.02-.83.77-1.77,1.35-2.81,1.75-1.04.4-2.22.6-3.54.6-2.92,0-5.2-.96-6.84-2.87s-2.47-4.07-2.47-6.48c0-2.27.7-4.29,2.09-6.06,1.76-2.26,4.13-3.38,7.09-3.38s5.48,1.16,7.3,3.47c1.29,1.63,1.95,3.67,1.97,6.11h-16.08c.04,2.08.71,3.78,1.99,5.1,1.28,1.33,2.87,1.99,4.75,1.99.91,0,1.79-.16,2.66-.47.86-.32,1.59-.74,2.2-1.26.6-.52,1.25-1.37,1.96-2.54Zm0-4.81c-.31-1.23-.75-2.21-1.34-2.94-.59-.73-1.36-1.32-2.33-1.77s-1.98-.67-3.04-.67c-1.75,0-3.26.56-4.52,1.69-.92.82-1.62,2.05-2.09,3.7h13.32Z"/>
    <path class="cls-2" d="m1171.66,331.01l-1.48,1.53c-1.23-1.19-2.43-1.79-3.61-1.79-.75,0-1.39.25-1.92.74-.53.49-.8,1.07-.8,1.72,0,.58.22,1.13.66,1.66.44.54,1.36,1.17,2.77,1.89,1.71.89,2.88,1.74,3.49,2.56.6.83.91,1.77.91,2.81,0,1.47-.52,2.71-1.55,3.73s-2.32,1.53-3.87,1.53c-1.03,0-2.02-.22-2.95-.67-.94-.45-1.71-1.07-2.33-1.86l1.45-1.64c1.17,1.32,2.42,1.99,3.74,1.99.92,0,1.71-.3,2.35-.89.65-.59.97-1.29.97-2.09,0-.66-.21-1.24-.64-1.76-.43-.5-1.39-1.14-2.9-1.91-1.61-.83-2.71-1.65-3.29-2.46s-.87-1.74-.87-2.78c0-1.36.46-2.49,1.39-3.38.93-.9,2.1-1.35,3.51-1.35,1.64,0,3.3.8,4.97,2.42Z"/>
    <path class="cls-2" d="m1193.13,331.01l-1.48,1.53c-1.23-1.19-2.43-1.79-3.61-1.79-.75,0-1.39.25-1.92.74-.53.49-.8,1.07-.8,1.72,0,.58.22,1.13.66,1.66.44.54,1.36,1.17,2.77,1.89,1.71.89,2.88,1.74,3.49,2.56.6.83.91,1.77.91,2.81,0,1.47-.52,2.71-1.55,3.73s-2.32,1.53-3.87,1.53c-1.03,0-2.02-.22-2.95-.67-.94-.45-1.71-1.07-2.33-1.86l1.45-1.64c1.17,1.32,2.42,1.99,3.74,1.99.92,0,1.71-.3,2.35-.89.65-.59.97-1.29.97-2.09,0-.66-.21-1.24-.64-1.76-.43-.5-1.39-1.14-2.9-1.91-1.61-.83-2.71-1.65-3.29-2.46s-.87-1.74-.87-2.78c0-1.36.46-2.49,1.39-3.38.93-.9,2.1-1.35,3.51-1.35,1.64,0,3.3.8,4.97,2.42Z"/>
  </g>
</svg>