<?xml version="1.0" encoding="UTF-8"?>
<svg id="Layer_1" data-name="Layer 1" xmlns="http://www.w3.org/2000/svg" viewBox="0 0 908.25 761.77">
  <defs>
    <style>
      .cls-1 {
        letter-spacing: 0em;
      }

      .cls-2 {
        font-family: CenturyGothic-BoldItalic, 'Century Gothic';
        font-size: 67.07px;
        font-style: italic;
        font-weight: 700;
        letter-spacing: .2em;
      }

      .cls-3 {
        fill: #31a4d3;
      }

      .cls-3, .cls-4, .cls-5 {
        stroke-width: 0px;
      }

      .cls-6 {
        letter-spacing: 0em;
      }

      .cls-7 {
        letter-spacing: 0em;
      }

      .cls-8 {
        font-family: CenturyGothic, 'Century Gothic';
        font-size: 32.95px;
      }

      .cls-4 {
        fill: #0b0b0b;
      }

      .cls-5 {
        fill: #0a0a0a;
      }

      .cls-9 {
        font-family: MyriadConceptItalic-SemiExt, 'Myriad Variable Concept';
        font-size: 164.41px;
        font-variation-settings: 'wght' 400, 'wdth' 110;
      }

      .cls-10 {
        letter-spacing: 0em;
      }
    </style>
  </defs>
  <path class="cls-4" d="m210.79,761.77c-.65-.02-1.22-.14-.89-.98.1-.25.43-.4.65-.6.01.52.03,1.04.07,1.57.03,0,.17.01.17.01Z"/>
  <path class="cls-5" d="m319.45,195.03c-3.96,0-7.94-.11-11.91.04-2.3.09-3.01-.73-2.91-2.97.21-4.69-1.5-10.65.77-13.73,2.19-2.95,8.51-.86,13-.88,21.24-.1,42.49.04,63.73-.13,3.31-.03,4.4.78,4.11,4.12-.31,3.59-.17,7.24-.04,10.85.09,2.41-.54,2.84-3.15,2.92-23.29.69-43.91,8.48-60.55,24.99-11.95,11.86-12.57,26.8-8.66,42.08,4.89,19.08,15.32,35.54,25.56,52.08,11.21,18.12,24.47,34.91,34.72,53.62,9.76,17.81,14.86,36.84,12.9,57.35-.94,9.86-3.94,19.16-8.79,28.86,6.47-2.52,12.14-4.51,17.61-6.94,2.56-1.13,3.58-.48,4.61,1.81,1.66,3.68,5.95,7.39,5.02,10.68-.95,3.39-6.62,3.9-10.26,5.57-21.31,9.82-42.68,19.5-63.98,29.33-2.31,1.06-3.73,1.22-5.43-1.15-3.75-5.22-7.75-10.29-11.92-15.18-1.9-2.24-1.21-2.81,1.04-3.78,12.11-5.2,23.74-11.24,34.08-19.57,17.56-14.16,22.77-33.06,15.27-54.32-7.63-21.63-20.13-40.58-32.01-59.91-11.23-18.27-23.99-35.62-33.22-55.09-5.88-12.4-10.03-25.3-10.12-39.2-.12-20.71,9.15-36.33,26.07-47.74,1.43-.96,2.96-1.76,4.43-2.65.07-.04,0-.3,0-1.06Z"/>
  <path class="cls-5" d="m41.87,148.52c11.29,5.87,22.6,11.72,33.88,17.61,19.22,10.04,38.4,20.14,57.66,30.09,2.46,1.27,1.51,1.98.27,3.29-10.31,10.92-20.54,21.92-30.87,32.82-21.79,22.99-43.64,45.91-65.43,68.89-7.06,7.45-21.69,21.97-22.03,21.71,4.87-7.09,9.69-14.23,14.63-21.28,21.85-31.12,43.75-62.21,65.58-93.34.99-1.41,2.51-2.44-.69-4.45-30.77-19.31-61.28-39.04-91.86-58.65-.77-.5-1.49-1.08-3.02-2.2,8.83-2.13,16.93-4.11,25.05-6.03,37.1-8.78,74.2-17.58,111.32-26.3,7.84-1.84,15.72-3.61,23.64-5.03,6.42-1.15,8.75-6.69,12.06-10.89,24.17-30.64,48.1-61.48,72.09-92.26.77-.98,1.37-2.11,3.39-2.51-1.9,5.81-5.3,10.51-8.01,15.44-13.24,24.03-26.82,47.87-40.22,71.81-6.54,11.69-12.95,23.45-19.45,35.16-1.32,2.38-3.56,3.01-6.14,3.48-25.48,4.6-51.12,8.17-76.58,12.91-18.29,3.4-36.76,5.86-55.15,8.73-.05.33-.09.67-.14,1Z"/>
  <g>
    <path class="cls-3" d="m254.64,319.67c-9.13-8.79-18.62-17.91-28.09-27.03-18.01-17.34-36.07-34.61-53.94-52.09-2.63-2.57-4.28-2.38-7.13-.54-36.32,23.44-72.73,46.74-109.11,70.09-7.62,4.89-28.34,16.49-28.34,16.49,0,0,12.33-9.8,18.08-14.9,7.99-7.09,16.12-14.02,24.25-20.95,32.55-27.72,65.2-55.33,97.72-83.09,2.48-2.12,3.64-1.62,5.6.55,18.54,20.54,37.19,41,55.84,61.45,1.35,1.48,2.45,3.28,4.44,4.19,1.76-1.14.89-2.88.89-4.27.06-29.9.11-59.81-.02-89.71-.01-3.37.92-4.96,4.2-6.05,39.62-13.25,79.19-26.63,118.76-40.01,24.11-8.15,76.48-26.75,79.32-25.63-40.05,18.83-79.78,37.5-119.52,56.18-21.76,10.23-43.51,20.49-65.33,30.6-2.61,1.21-3.29,2.66-3.13,5.41,1.91,31.39,3.79,62.78,5.45,94.18.44,8.3.07,16.64.07,25.14Z"/>
    <path class="cls-3" d="m649.36,52.24c-32.25,4.22-64.42,9.08-96.5,14.46-37.35,6.26-74.57,13.22-111.54,21.39-71.11,15.71-141.34,34.47-208.99,61.92-1.26.51,10.49-6.28,17.85-9.68,7.56-3.5,15.1-7.03,22.7-10.43,35.58-15.91,71.36-31.36,108.58-43.13,27.27-8.62,55.17-14.86,83.06-21.03,32.06-7.1,64.39-12.76,96.9-17.33,13.22-1.86,26.54-3.07,39.83-4.45,41.71-4.36,83.59-4.22,125.44-4.8,7.83-.11,15.67-.02,23.5-.02.05.45-71.23,9.24-100.84,13.11Z"/>
  </g>
  <text class="cls-9" transform="translate(379.15 335.94)"><tspan class="cls-7" x="0" y="0">t</tspan><tspan class="cls-10" x="55.41" y="0">a</tspan><tspan class="cls-6" x="149.45" y="0">r</tspan><tspan class="cls-1" x="205.02" y="0">g</tspan><tspan x="298.73" y="0">a</tspan><tspan class="cls-1" x="392.44" y="0">t</tspan><tspan x="447.68" y="0">e</tspan></text>
  <text class="cls-8" transform="translate(15.46 361.11)"><tspan x="0" y="0">your connection</tspan></text>
  <text class="cls-2" transform="translate(554.17 428.88)"><tspan x="0" y="0">Internet</tspan></text>
  <text class="cls-8" transform="translate(47.1 401.01)"><tspan x="0" y="0">to the future</tspan></text>
</svg>